Coordinates
version=1
nRows=10
nColumns=40
inDegrees=yes

Units are S.I. units (second, meters, Newtons, ...)
If the header above contains a line with 'inDegrees', this indicates whether rotational values are in degrees (yes) or radians (no).

endheader
time	pelvis_tilt	pelvis_list	pelvis_rotation	pelvis_tx	pelvis_ty	pelvis_tz	hip_flexion_r	hip_adduction_r	hip_rotation_r	knee_angle_r	knee_angle_r_beta	ankle_angle_r	subtalar_angle_r	mtp_angle_r	hip_flexion_l	hip_adduction_l	hip_rotation_l	knee_angle_l	knee_angle_l_beta	ankle_angle_l	subtalar_angle_l	mtp_angle_l	lumbar_extension	lumbar_bending	lumbar_rotation	arm_flex_r	arm_add_r	arm_rot_r	elbow_flex_r	pro_sup_r	wrist_flex_r	wrist_dev_r	arm_flex_l	arm_add_l	arm_rot_l	elbow_flex_l	pro_sup_l	wrist_flex_l	wrist_dev_l
      4.41500000	    -16.17207215	      0.47499234	      0.28582850	     -0.44025632	      0.59506920	     -0.80696894	     84.92679906	    -20.03707822	      9.42649692	    111.92006500	      1.95337363	     40.87645205	      0.00000000	      0.00000000	     83.62140239	    -28.12617086	      9.55951220	    109.74927996	      1.91548629	     39.20835343	      0.00000000	      0.00000000	    -30.43707730	     -5.44934714	     -2.05710672	    -45.34432826	    -50.42372007	     11.39221070	    119.29362890	     87.96847420	      0.00000000	      0.00000000	     18.25770089	    -69.29167788	     87.51694431	    112.86195919	     88.37236654	      0.00000000	      0.00000000
      4.42000000	    -16.32001791	      0.77021917	      0.50431731	     -0.44136159	      0.58622519	     -0.80708413	     86.22724300	    -20.32601667	     10.33241188	    113.19464510	      1.97561925	     41.08071456	      0.00000000	      0.00000000	     84.69488690	    -27.96084222	      9.87020558	    110.91146997	      1.93577033	     39.39494164	      0.00000000	      0.00000000	    -30.62092199	     -5.65543570	     -2.17222816	    -45.45911850	    -50.83587494	     11.64149257	    119.51322492	     87.97564769	      0.00000000	      0.00000000	     18.38493208	    -69.61918356	     87.66413634	    113.34960034	     88.39878497	      0.00000000	      0.00000000
      4.42500000	    -16.09180824	      0.80949925	      0.61733782	     -0.44276098	      0.57894357	     -0.80634377	     86.86687569	    -20.33966822	     10.81085337	    114.30539684	      1.99500553	     41.28949517	      0.00000000	      0.00000000	     85.42563766	    -28.08411347	     10.32660705	    111.87529705	      1.95259229	     39.60707638	      0.00000000	      0.00000000	    -31.35613154	     -5.69468269	     -2.05772800	    -45.26240176	    -50.95223208	     11.72660475	    119.49815127	     87.98036376	      0.00000000	      0.00000000	     18.63703636	    -69.74559718	     87.54527977	    113.32737532	     88.39491875	      0.00000000	      0.00000000
      4.43000000	    -16.27001873	      0.91347014	      0.92682462	     -0.44414232	      0.57058354	     -0.80669411	     88.04299923	    -20.63237828	     11.48398292	    115.43700916	      2.01475589	     41.55189590	      0.00000000	      0.00000000	     86.66154557	    -27.74427122	     10.91905657	    112.98052072	      1.97188208	     39.66326370	      0.00000000	      0.00000000	    -31.55788198	     -5.64762573	     -2.26204174	    -45.18346896	    -51.50103650	     12.17604649	    119.65555597	     87.99887599	      0.00000000	      0.00000000	     18.66799977	    -69.96486792	     87.83701152	    113.80468537	     88.42471039	      0.00000000	      0.00000000
      4.43500000	    -16.05875086	      0.99415866	      1.08257132	     -0.44515991	      0.56339981	     -0.80667282	     88.72159506	    -20.78829856	     12.06527392	    116.52135132	      2.03368123	     41.73136026	      0.00000000	      0.00000000	     87.34822402	    -27.74974198	     11.31980995	    113.96923439	      1.98913839	     39.86465035	      0.00000000	      0.00000000	    -32.22421278	     -5.61830356	     -2.19291454	    -44.98739144	    -51.66317513	     12.30590157	    119.60250286	     88.00406026	      0.00000000	      0.00000000	     18.81536093	    -69.87080721	     87.79696355	    113.75294858	     88.42277935	      0.00000000	      0.00000000
      4.44000000	    -16.33016211	      1.21420871	      1.42440461	     -0.44683750	      0.55541757	     -0.80704366	     90.10371227	    -21.11076714	     12.90115920	    117.57217326	      2.05202153	     41.71667289	      0.00000000	      0.00000000	     88.54815510	    -27.29016905	     11.73596596	    114.94273101	      2.00612911	     39.79964137	      0.00000000	      0.00000000	    -32.23786568	     -5.68899026	     -2.85417670	    -43.66141975	    -52.77964732	     14.04104445	    119.52430418	     87.99342577	      0.00000000	      0.00000000	     18.40727682	    -70.11784555	     87.91087050	    114.02712317	     88.43090194	      0.00000000	      0.00000000
      4.44500000	    -16.12617446	      0.99464741	      2.00970465	     -0.44693893	      0.54850471	     -0.80771732	     90.53377967	    -21.76460171	     13.13312533	    118.66581782	      2.07110923	     41.95656616	      0.00000000	      0.00000000	     89.42820424	    -26.84618723	     12.53787868	    115.94558426	      2.02363220	     39.91192308	      0.00000000	      0.00000000	    -32.82071011	     -5.12072097	     -3.05443177	    -43.49451089	    -53.05215322	     14.32819148	    119.40242248	     87.99732902	      0.00000000	      0.00000000	     18.29202162	    -69.84966401	     88.00420721	    113.82881126	     88.43830701	      0.00000000	      0.00000000
      4.45000000	    -15.86589176	      1.03279698	      2.15227423	     -0.44803097	      0.54176769	     -0.80780871	     91.12378522	    -21.88427412	     13.69038061	    119.65395113	      2.08835541	     42.14397683	      0.00000000	      0.00000000	     90.11168520	    -26.80076445	     13.00373276	    116.89424072	      2.04018938	     40.07792576	      0.00000000	      0.00000000	    -33.52714843	     -5.01600582	     -3.02093326	    -43.26781119	    -53.26340261	     14.37488154	    119.39193361	     88.00000342	      0.00000000	      0.00000000	     18.35393931	    -69.68786440	     88.02758657	    113.75374653	     88.44059815	      0.00000000	      0.00000000
      4.45500000	    -15.95828463	      1.03410287	      2.68523148	     -0.44923257	      0.53468941	     -0.80833900	     92.10135942	    -22.35590289	     14.31830785	    120.62652828	      2.10533008	     42.17147531	      0.00000000	      0.00000000	     91.18881671	    -26.10694377	     13.71851266	    117.76640509	      2.05541152	     39.88306709	      0.00000000	      0.00000000	    -33.70009146	     -4.75017562	     -3.88745458	    -41.37092665	    -54.59462704	     16.70955497	    119.26232791	     87.99661913	      0.00000000	      0.00000000	     17.63538428	    -69.80159861	     88.00510445	    113.84197098	     88.42038999	      0.00000000	      0.00000000
      4.46000000	    -15.65556697	      1.00530556	      3.03347754	     -0.44962784	      0.52839997	     -0.80871000	     92.53003841	    -22.63954031	     14.90846802	    121.63172734	      2.12287412	     42.31752137	      0.00000000	      0.00000000	     91.77300405	    -25.83450256	     14.25994597	    118.68053821	      2.07136615	     40.03312064	      0.00000000	      0.00000000	    -34.40794096	     -4.45420796	     -3.94389971	    -41.19906662	    -54.75844603	     16.84165926	    119.19071804	     87.99966925	      0.00000000	      0.00000000	     17.55664858	    -69.53760712	     88.14298051	    113.59933206	     88.43765416	      0.00000000	      0.00000000
